<?xml version="1.0" encoding="UTF-8"?>
<svg xmlns="http://www.w3.org/2000/svg" version="1.1" id="board" width="108.000" height="88.000" viewBox="16.000 16.000 108.000 88.000" overflow="hidden">
<g id="node-1-Layer_x20_1">
<title>Layer 1</title>
<g id="path-10" opacity="0.800">
<defs><mask id="knockout-10" maskUnits="userSpaceOnUse" x="16.000" y="16.000" width="108.000" height="88.000"><rect x="16.000" y="16.000" width="108.000" height="88.000" fill="white"/><path d="M20.010 20.204L20.000 20.000L20.010 19.796L20.041 19.597L20.090 19.405L20.157 19.221L20.241 19.047L20.342 18.882L20.457 18.728L20.586 18.586L20.728 18.457L20.882 18.342L21.047 18.241L21.221 18.157L21.405 18.090L21.597 18.041L21.796 18.010L22.000 18.000L28.000 18.000L28.204 18.010L28.403 18.041L28.595 18.090L28.779 18.157L28.953 18.241L29.118 18.342L29.272 18.457L29.414 18.586L29.500 18.680L29.586 18.586L29.728 18.457L29.882 18.342L30.047 18.241L30.221 18.157L30.405 18.090L30.597 18.041L30.796 18.010L31.000 18.000L37.000 18.000L37.205 18.010L37.403 18.041L37.595 18.090L37.779 18.157L37.953 18.241L38.118 18.342L38.272 18.457L38.414 18.586L38.500 18.680L38.586 18.586L38.728 18.457L38.882 18.342L39.047 18.241L39.221 18.157L39.405 18.090L39.597 18.041L39.795 18.010L40.000 18.000L46.000 18.000L46.205 18.010L46.403 18.041L46.595 18.090L46.779 18.157L46.953 18.241L47.118 18.342L47.272 18.457L47.414 18.586L47.500 18.680L47.586 18.586L47.728 18.457L47.882 18.342L48.047 18.241L48.221 18.157L48.405 18.090L48.597 18.041L48.795 18.010L49.000 18.000L55.000 18.000L55.205 18.010L55.403 18.041L55.595 18.090L55.779 18.157L55.953 18.241L56.118 18.342L56.272 18.457L56.414 18.586L56.500 18.680L56.586 18.586L56.728 18.457L56.882 18.342L57.047 18.241L57.221 18.157L57.405 18.090L57.597 18.041L57.795 18.010L58.000 18.000L64.000 18.000L64.204 18.010L64.403 18.041L64.595 18.090L64.778 18.157L64.953 18.241L65.118 18.342L65.272 18.457L65.414 18.586L65.500 18.680L65.586 18.586L65.728 18.457L65.882 18.342L66.047 18.241L66.222 18.157L66.405 18.090L66.597 18.041L66.796 18.010L67.000 18.000L73.000 18.000L73.204 18.010L73.403 18.041L73.595 18.090L73.778 18.157L73.953 18.241L74.118 18.342L74.272 18.457L74.414 18.586L74.500 18.680L74.586 18.586L74.728 18.457L74.882 18.342L75.047 18.241L75.222 18.157L75.405 18.090L75.597 18.041L75.796 18.010L76.000 18.000L82.000 18.000L82.204 18.010L82.403 18.041L82.595 18.090L82.778 18.157L82.953 18.241L83.118 18.342L83.272 18.457L83.414 18.586L83.500 18.680L83.586 18.586L83.728 18.457L83.882 18.342L84.047 18.241L84.222 18.157L84.405 18.090L84.597 18.041L84.796 18.010L85.000 18.000L91.000 18.000L91.204 18.010L91.403 18.041L91.595 18.090L91.778 18.157L91.953 18.241L92.118 18.342L92.272 18.457L92.414 18.586L92.500 18.680L92.586 18.586L92.728 18.457L92.882 18.342L93.047 18.241L93.222 18.157L93.405 18.090L93.597 18.041L93.796 18.010L94.000 18.000L100.000 18.000L100.204 18.010L100.403 18.041L100.595 18.090L100.778 18.157L100.953 18.241L101.118 18.342L101.272 18.457L101.414 18.586L101.500 18.680L101.586 18.586L101.728 18.457L101.882 18.342L102.047 18.241L102.222 18.157L102.405 18.090L102.597 18.041L102.796 18.010L103.000 18.000L109.000 18.000L109.204 18.010L109.403 18.041L109.595 18.090L109.778 18.157L109.953 18.241L110.118 18.342L110.272 18.457L110.414 18.586L110.500 18.680L110.586 18.586L110.728 18.457L110.882 18.342L111.047 18.241L111.222 18.157L111.405 18.090L111.597 18.041L111.796 18.010L112.000 18.000L118.000 18.000L118.204 18.010L118.403 18.041L118.595 18.090L118.778 18.157L118.953 18.241L119.118 18.342L119.272 18.457L119.414 18.586L119.543 18.728L119.658 18.882L119.742 19.019L119.796 19.010L120.000 19.000L120.204 19.010L120.403 19.041L120.595 19.090L120.778 19.157L120.953 19.241L121.118 19.342L121.272 19.457L121.414 19.586L121.543 19.728L121.658 19.882L121.759 20.047L121.843 20.221L121.910 20.405L121.959 20.597L121.990 20.796L122.000 21.000L122.000 27.000L121.990 27.204L121.959 27.403L121.910 27.595L121.843 27.779L121.759 27.953L121.658 28.118L121.543 28.272L121.414 28.414L121.320 28.500L121.414 28.586L121.543 28.728L121.658 28.882L121.759 29.047L121.843 29.221L121.910 29.405L121.959 29.597L121.990 29.796L122.000 30.000L122.000 36.000L121.990 36.205L121.959 36.403L121.910 36.595L121.843 36.779L121.759 36.953L121.658 37.118L121.543 37.272L121.414 37.414L121.320 37.500L121.414 37.586L121.543 37.728L121.658 37.882L121.759 38.047L121.843 38.221L121.910 38.405L121.959 38.597L121.990 38.795L122.000 39.000L122.000 45.000L121.990 45.205L121.959 45.403L121.910 45.595L121.843 45.779L121.759 45.953L121.658 46.118L121.543 46.272L121.414 46.414L121.320 46.500L121.414 46.586L121.543 46.728L121.658 46.882L121.759 47.047L121.843 47.221L121.910 47.405L121.959 47.597L121.990 47.795L122.000 48.000L122.000 54.000L121.990 54.205L121.959 54.403L121.910 54.595L121.843 54.779L121.759 54.953L121.658 55.118L121.543 55.272L121.414 55.414L121.320 55.500L121.414 55.586L121.543 55.728L121.658 55.882L121.759 56.047L121.843 56.221L121.910 56.405L121.959 56.597L121.990 56.795L122.000 57.000L122.000 63.000L121.990 63.205L121.959 63.403L121.910 63.595L121.843 63.779L121.759 63.953L121.658 64.118L121.543 64.272L121.414 64.414L121.320 64.500L121.414 64.586L121.543 64.728L121.658 64.882L121.759 65.047L121.843 65.222L121.910 65.405L121.959 65.597L121.990 65.796L122.000 66.000L122.000 72.000L121.990 72.204L121.959 72.403L121.910 72.595L121.843 72.778L121.759 72.953L121.658 73.118L121.543 73.272L121.414 73.414L121.320 73.500L121.414 73.586L121.543 73.728L121.658 73.882L121.759 74.047L121.843 74.222L121.910 74.405L121.959 74.597L121.990 74.796L122.000 75.000L122.000 81.000L121.990 81.204L121.959 81.403L121.910 81.595L121.843 81.778L121.759 81.953L121.658 82.118L121.543 82.272L121.414 82.414L121.320 82.500L121.414 82.586L121.543 82.728L121.658 82.882L121.759 83.047L121.843 83.222L121.910 83.405L121.959 83.597L121.990 83.796L122.000 84.000L122.000 90.000L121.990 90.204L121.959 90.403L121.910 90.595L121.843 90.778L121.759 90.953L121.658 91.118L121.543 91.272L121.414 91.414L121.320 91.500L121.414 91.586L121.543 91.728L121.658 91.882L121.759 92.047L121.843 92.222L121.910 92.405L121.959 92.597L121.990 92.796L122.000 93.000L122.000 99.000L121.990 99.204L121.959 99.403L121.910 99.595L121.843 99.778L121.759 99.953L121.658 100.118L121.543 100.272L121.414 100.414L121.272 100.543L121.118 100.658L120.953 100.759L120.778 100.843L120.595 100.910L120.403 100.959L120.204 100.990L120.000 101.000L119.796 100.990L119.597 100.959L119.405 100.910L119.222 100.843L119.047 100.759L118.882 100.658L118.728 100.543L118.586 100.414L118.457 100.272L118.342 100.118L118.241 99.953L118.157 99.778L118.090 99.595L118.041 99.403L118.010 99.204L118.000 99.000L118.000 93.000L118.010 92.796L118.041 92.597L118.090 92.405L118.157 92.222L118.241 92.047L118.342 91.882L118.457 91.728L118.586 91.586L118.680 91.500L118.586 91.414L118.457 91.272L118.342 91.118L118.241 90.953L118.157 90.778L118.090 90.595L118.041 90.403L118.010 90.204L118.000 90.000L118.000 84.000L118.010 83.796L118.041 83.597L118.090 83.405L118.157 83.222L118.241 83.047L118.342 82.882L118.457 82.728L118.586 82.586L118.680 82.500L118.586 82.414L118.457 82.272L118.342 82.118L118.241 81.953L118.157 81.778L118.090 81.595L118.041 81.403L118.010 81.204L118.000 81.000L118.000 75.000L118.010 74.796L118.041 74.597L118.090 74.405L118.157 74.222L118.241 74.047L118.342 73.882L118.457 73.728L118.586 73.586L118.680 73.500L118.586 73.414L118.457 73.272L118.342 73.118L118.241 72.953L118.157 72.778L118.090 72.595L118.041 72.403L118.010 72.204L118.000 72.000L118.000 66.000L118.010 65.796L118.041 65.597L118.090 65.405L118.157 65.222L118.241 65.047L118.342 64.882L118.457 64.728L118.586 64.586L118.680 64.500L118.586 64.414L118.457 64.272L118.342 64.118L118.241 63.953L118.157 63.779L118.090 63.595L118.041 63.403L118.010 63.205L118.000 63.000L118.000 57.000L118.010 56.795L118.041 56.597L118.090 56.405L118.157 56.221L118.241 56.047L118.342 55.882L118.457 55.728L118.586 55.586L118.680 55.500L118.586 55.414L118.457 55.272L118.342 55.118L118.241 54.953L118.157 54.779L118.090 54.595L118.041 54.403L118.010 54.205L118.000 54.000L118.000 48.000L118.010 47.795L118.041 47.597L118.090 47.405L118.157 47.221L118.241 47.047L118.342 46.882L118.457 46.728L118.586 46.586L118.680 46.500L118.586 46.414L118.457 46.272L118.342 46.118L118.241 45.953L118.157 45.779L118.090 45.595L118.041 45.403L118.010 45.205L118.000 45.000L118.000 39.000L118.010 38.795L118.041 38.597L118.090 38.405L118.157 38.221L118.241 38.047L118.342 37.882L118.457 37.728L118.586 37.586L118.680 37.500L118.586 37.414L118.457 37.272L118.342 37.118L118.241 36.953L118.157 36.779L118.090 36.595L118.041 36.403L118.010 36.205L118.000 36.000L118.000 30.000L118.010 29.796L118.041 29.597L118.090 29.405L118.157 29.221L118.241 29.047L118.342 28.882L118.457 28.728L118.586 28.586L118.680 28.500L118.586 28.414L118.457 28.272L118.342 28.118L118.241 27.953L118.157 27.779L118.090 27.595L118.041 27.403L118.010 27.204L118.000 27.000L118.000 22.000L112.000 22.000L111.796 21.990L111.597 21.959L111.405 21.910L111.222 21.843L111.047 21.759L110.882 21.658L110.728 21.543L110.586 21.414L110.500 21.320L110.414 21.414L110.272 21.543L110.118 21.658L109.953 21.759L109.778 21.843L109.595 21.910L109.403 21.959L109.204 21.990L109.000 22.000L103.000 22.000L102.796 21.990L102.597 21.959L102.405 21.910L102.222 21.843L102.047 21.759L101.882 21.658L101.728 21.543L101.586 21.414L101.500 21.320L101.414 21.414L101.272 21.543L101.118 21.658L100.953 21.759L100.778 21.843L100.595 21.910L100.403 21.959L100.204 21.990L100.000 22.000L94.000 22.000L93.796 21.990L93.597 21.959L93.405 21.910L93.222 21.843L93.047 21.759L92.882 21.658L92.728 21.543L92.586 21.414L92.500 21.320L92.414 21.414L92.272 21.543L92.118 21.658L91.953 21.759L91.778 21.843L91.595 21.910L91.403 21.959L91.204 21.990L91.000 22.000L85.000 22.000L84.796 21.990L84.597 21.959L84.405 21.910L84.222 21.843L84.047 21.759L83.882 21.658L83.728 21.543L83.586 21.414L83.500 21.320L83.414 21.414L83.272 21.543L83.118 21.658L82.953 21.759L82.778 21.843L82.595 21.910L82.403 21.959L82.204 21.990L82.000 22.000L76.000 22.000L75.796 21.990L75.597 21.959L75.405 21.910L75.222 21.843L75.047 21.759L74.882 21.658L74.728 21.543L74.586 21.414L74.500 21.320L74.414 21.414L74.272 21.543L74.118 21.658L73.953 21.759L73.778 21.843L73.595 21.910L73.403 21.959L73.204 21.990L73.000 22.000L67.000 22.000L66.796 21.990L66.597 21.959L66.405 21.910L66.222 21.843L66.047 21.759L65.882 21.658L65.728 21.543L65.586 21.414L65.500 21.320L65.414 21.414L65.272 21.543L65.118 21.658L64.953 21.759L64.778 21.843L64.595 21.910L64.403 21.959L64.204 21.990L64.000 22.000L58.000 22.000L57.795 21.990L57.597 21.959L57.405 21.910L57.221 21.843L57.047 21.759L56.882 21.658L56.728 21.543L56.586 21.414L56.500 21.320L56.414 21.414L56.272 21.543L56.118 21.658L55.953 21.759L55.779 21.843L55.595 21.910L55.403 21.959L55.205 21.990L55.000 22.000L49.000 22.000L48.795 21.990L48.597 21.959L48.405 21.910L48.221 21.843L48.047 21.759L47.882 21.658L47.728 21.543L47.586 21.414L47.500 21.320L47.414 21.414L47.272 21.543L47.118 21.658L46.953 21.759L46.779 21.843L46.595 21.910L46.403 21.959L46.205 21.990L46.000 22.000L40.000 22.000L39.795 21.990L39.597 21.959L39.405 21.910L39.221 21.843L39.047 21.759L38.882 21.658L38.728 21.543L38.586 21.414L38.500 21.320L38.414 21.414L38.272 21.543L38.118 21.658L37.953 21.759L37.779 21.843L37.595 21.910L37.403 21.959L37.205 21.990L37.000 22.000L31.000 22.000L30.796 21.990L30.597 21.959L30.405 21.910L30.221 21.843L30.047 21.759L29.882 21.658L29.728 21.543L29.586 21.414L29.500 21.320L29.414 21.414L29.272 21.543L29.118 21.658L28.953 21.759L28.779 21.843L28.595 21.910L28.403 21.959L28.204 21.990L28.000 22.000L22.000 22.000L21.796 21.990L21.597 21.959L21.405 21.910L21.221 21.843L21.047 21.759L20.882 21.658L20.728 21.543L20.586 21.414L20.457 21.272L20.342 21.118L20.241 20.953L20.157 20.779L20.090 20.595L20.041 20.403Z" fill="black" fill-rule="evenodd"/></mask></defs>
<path d="M20.000 20.000 L120.000 20.000 L120.000 100.000 " fill="#80b3e6" fill-opacity="1.000" fill-rule="evenodd" mask="url(#knockout-10)"/>
<path d="M20.000 20.000 L120.000 20.000 L120.000 100.000 " fill="none" stroke="#000000" stroke-opacity="0.700" stroke-width="4.000" stroke-linecap="round" stroke-linejoin="round" stroke-miterlimit="10.000" stroke-dasharray="6.000,3.000,6.000,3.000" stroke-dashoffset="-2.000"/>
</g>
</g>
</svg>
